<svg xmlns="http://www.w3.org/2000/svg" width="109" height="109">
        <g id="kvg:StrokePaths_06728">
          <path id="kvg:06728-s1" d="M13.25,39.69c1.94,0.53,4.14,0.71,6.22,0.53c12.38-1.07,51.87-4.57,69.57-5.06c2.08-0.06,3.31,0.06,5.39,0.36" />
          <path id="kvg:06728-s2" d="M52.00,11.25c1.25,0.5,2.00,2.25,2.25,3.25s-0.25,71.5-0.25,77.75c0,11.5-5.25,2.25-6.25,1.25" />
          <path id="kvg:06728-s3" d="M52.75,39.25C44,51.5,26.5,69.25,14,76.75" />
          <path id="kvg:06728-s4" d="M53.25,39.25c7.75,8.25,26.5,26.25,36.5,32.75c2.31,1.5,4.28,2.34,6.25,2.75" />
        </g>
        </svg>